<?xml version="1.0" encoding="utf-8"?>
<!-- Svg Vector Icons : http://www.onlinewebfonts.com/icon -->
<!DOCTYPE svg PUBLIC "-//W3C//DTD SVG 1.1//EN" "http://www.w3.org/Graphics/SVG/1.1/DTD/svg11.dtd">
<svg class="social-icon" version="1.1" xmlns="http://www.w3.org/2000/svg" xmlns:xlink="http://www.w3.org/1999/xlink" x="0px" y="0px" viewBox="0 0 1000 1000" enable-background="new 0 0 1000 1000" xml:space="preserve">
<metadata> Svg Vector Icons : http://www.onlinewebfonts.com/icon </metadata>
<g><path fill="currentColor" d="M500,10C229.4,10,10,229.4,10,500s219.4,490,490,490s490-219.4,490-490S770.6,10,500,10 M500,980C234.9,980,20,765.1,20,500C20,234.9,234.9,20,500,20c265.1,0,480,214.9,480,480C980,765.1,765.1,980,500,980"/><path d="M782.5,300h-3.7H221.2h-4.8h-14.6h-5.2v400h606.9V300H782.5z M754.5,325L520,566.5c-10.7,11-29.3,11-40,0L245.5,325H754.5z M220.8,335l157.6,162.3L220.8,659.6V335z M240.2,675l155.5-160.1l67.2,69.2C472.7,594.4,486,600,500,600c14,0,27.3-5.6,37.2-15.9l67.2-69.2L759.8,675H240.2z M779.2,659.6L621.5,497.3l157.7-162.4V659.6z"/></g>
</svg>