<svg class="option-icon" height="512" viewBox="0 0 192 192" width="512" xmlns="http://www.w3.org/2000/svg"><path d="m168 0h-144a24.028 24.028 0 0 0 -24 24v160a8.073 8.073 0 0 0 12.922 6.307l38.83-30.307h116.248a24.028 24.028 0 0 0 24-24v-112a24.028 24.028 0 0 0 -24-24zm-24.845 83.578c-11.1 22.2-42.8 35.287-44.143 35.833a8 8 0 0 1 -6.024 0c-1.344-.546-33.043-13.631-44.143-35.833-6.056-12.113-2.28-29.087 8.419-37.838 5.078-4.154 18.527-11.753 38.736 1.425 20.209-13.178 33.657-5.58 38.736-1.425 10.699 8.751 14.475 25.725 8.419 37.838z"/></svg>